<?xml version="1.0" encoding="utf-8"?>
<!-- Generator: Adobe Illustrator 24.0.1, SVG Export Plug-In . SVG Version: 6.00 Build 0)  -->
<svg version="1.1"
	 id="svg2" xmlns:cc="http://creativecommons.org/ns#" xmlns:dc="http://purl.org/dc/elements/1.1/" xmlns:rdf="http://www.w3.org/1999/02/22-rdf-syntax-ns#"
	 xmlns="http://www.w3.org/2000/svg" xmlns:xlink="http://www.w3.org/1999/xlink" x="0px" y="0px" viewBox="0 0 1543.4 320"
	 style="enable-background:new 0 0 1543.4 320;" xml:space="preserve">
<style type="text/css">
	.st0{fill:#FFFFFF;}
</style>
<g>
	<path class="st0" d="M301.6,110.5l-8.4-14.5c-1.2-2.1-1.2-4.7-0.3-7c1.3-3.3,0.7-7.1-1.7-9.8c-1.5-1.7-3.6-2.9-5.9-3.2
		c-2.4-0.3-4.5-1.6-5.8-3.6l-8.5-14.7c-1.7-2.9-1.3-6.6,0.8-9.2c11.1-13.6,2.3-35.5-16.3-36.4c-11.8-0.6-22.3,8.3-23.5,20
		c-1.5,15.3,11.8,26.7,25.6,24.5c3.4-0.5,6.7,0.9,8.4,3.9l8.3,14.4c1.2,2.2,1.4,4.7,0.5,7c-1.3,3.2-0.8,6.9,1.4,9.6
		c1.5,1.9,3.6,3.1,6,3.5c2.5,0.4,4.8,1.7,6,3.9l8.3,14.5c1.7,2.9,1.4,6.5-0.8,9.1c-6.7,8.2-6.7,20,0,28.2c2.1,2.6,2.4,6.2,0.8,9.1
		l-8.3,14.4c-1.3,2.2-3.6,3.5-6.1,4c-5.2,0.9-9.1,6-7.8,11.7c1,4.4,5.2,7.6,9.7,7.5c6.9-0.2,11-7.2,8.7-13.1c-0.9-2.3-0.9-4.9,0.3-7
		l8.4-14.5c1.7-2.9,5.1-4.4,8.4-3.9c13.1,2,25.7-8.1,25.7-22.2c0-14-12.6-24.2-25.7-22.2C306.7,114.9,303.3,113.4,301.6,110.5"/>
	<path class="st0" d="M223.8,165.2c-18.6,0.9-27.5,22.8-16.3,36.4c2.1,2.6,2.5,6.2,0.8,9.2l-8.3,14.4c-1.3,2.2-3.6,3.5-6.1,4
		c-5.2,0.9-9.1,6-7.8,11.7c1,4.4,5.2,7.6,9.8,7.5c6.9-0.2,11-7.3,8.7-13.1c-0.9-2.3-0.9-4.9,0.3-7l8.4-14.5c1.7-2.9,5-4.4,8.4-3.9
		c13.8,2.1,27.1-9.2,25.6-24.5C246.1,173.5,235.6,164.6,223.8,165.2"/>
	<path class="st0" d="M195.5,272.9c-12.3,0-22.4,10-22.4,22.4c0,12.3,10.1,22.4,22.4,22.4c12.4,0,22.4-10,22.4-22.4
		C217.9,283,207.8,272.9,195.5,272.9"/>
	<path class="st0" d="M48.5,95.1c6.9-0.2,11-7.3,8.7-13.1c-0.9-2.3-0.9-4.9,0.3-7l15.6-27.1c1.3-2.2,3.5-3.6,6-3.9
		c4.8-0.7,8.6-5.1,8.2-10.3c-0.5-7.2-7.5-11.2-14-7.9c-4.6,2.3-6.4,7.6-4.7,12.1c0.9,2.4,0.9,5-0.4,7.2L52.7,72
		c-1.3,2.2-3.6,3.5-6.1,4c-5.3,0.9-9.1,6-7.8,11.8C39.7,92.1,44,95.3,48.5,95.1"/>
	<path class="st0" d="M93.2,184.7H61.7c-2.4,0-4.5-1.3-6-3.2c-1.5-1.9-3.6-3.2-6-3.5c-2.5-0.4-4.8-1.7-6.1-3.9l-15.5-26.9
		c-1.3-2.2-1.3-4.9-0.4-7.2c2-5.1-0.8-11.2-6.5-12.8c-6.2-1.6-12.2,3-12.2,9.3c0,4.8,3.5,8.8,8.1,9.5c2.5,0.4,4.8,1.7,6.1,4
		l15.5,26.9c1.3,2.2,1.3,4.9,0.4,7.3c-1.6,4.3,0,9.3,4.2,11.7c4.2,2.5,9.4,1.3,12.3-2.2c1.6-2,3.9-3.3,6.5-3.3h31.1
		c2.6,0,4.9,1.3,6.5,3.3c3,3.8,8.6,4.8,12.9,2c5.4-3.6,5.6-12,0.3-15.8c-4.3-3.1-10.1-2.2-13.2,1.7C98,183.5,95.7,184.7,93.2,184.7"
		/>
	<path class="st0" d="M106.7,75.7c-6.9,0.2-11,7.3-8.7,13.1c0.9,2.3,0.9,4.9-0.3,7l-8.4,14.6c-1.7,2.9-5,4.4-8.4,3.9
		c-13.8-2.1-27.1,9.2-25.6,24.5c1.1,11.7,11.7,20.6,23.4,20c18.6-0.9,27.5-22.8,16.3-36.4c-2.1-2.6-2.5-6.2-0.8-9.2l8.3-14.4
		c1.3-2.2,3.6-3.5,6.1-4c5.2-0.9,9.1-6,7.8-11.7C115.5,78.7,111.3,75.6,106.7,75.7"/>
	<path class="st0" d="M166.4,75.8c-4.5-0.1-8.8,3-9.8,7.5c-1.3,5.7,2.6,10.9,7.8,11.7c2.5,0.4,4.8,1.7,6.1,4l15.6,27.1
		c1.2,2.1,1.2,4.7,0.3,7c-2.3,5.9,1.8,12.9,8.7,13.1c4.5,0.1,8.8-3,9.8-7.5c1.3-5.8-2.6-10.9-7.8-11.7c-2.5-0.4-4.8-1.7-6.1-4
		L175.3,96c-1.2-2.2-1.2-4.7-0.3-7C177.4,83.1,173.3,76,166.4,75.8"/>
	<path class="st0" d="M249.9,123c-3.9-6.8-11.8-20.4-15.6-27.1c-1.2-2.1-1.2-4.7-0.3-7c1.3-3.3,0.7-7.1-1.7-9.9
		c-1.5-1.7-3.6-2.9-5.9-3.2c-2.4-0.3-4.6-1.5-5.8-3.6l-15.8-27.4c-1.2-2.1-1.2-4.7-0.3-7c1.6-4,0.3-8.8-3.5-11.4
		c-4.3-3-10.1-2-13.1,1.9c-1.5,1.9-3.6,3.1-6,3.1h-16.9c-3.4,0-6.3-2.2-7.5-5.4c-5.1-13.2-22-18.8-34.1-9.8
		c-13.7,10.2-13.7,26.1,0.2,36.1c12.2,8.9,29,3.2,34-10c1.2-3.1,4.1-5.2,7.5-5.2H182c2.4,0,4.5,1.3,6,3.1c1.5,1.9,3.6,3.2,5.9,3.6
		c2.5,0.4,4.8,1.7,6.1,3.9l15.5,26.9c1.3,2.2,1.3,4.8,0.4,7.2c-1.1,2.9-0.8,6.2,1,8.9c1.5,2.2,3.9,3.7,6.6,4.2
		c2.4,0.4,4.6,1.6,5.8,3.7l15.8,27.3c1.2,2.2,1.2,4.7,0.3,7c-2.3,5.9,1.8,12.9,8.7,13.1c4.5,0.1,8.8-3,9.8-7.5
		c1.3-5.7-2.6-10.9-7.8-11.7C253.5,126.6,251.2,125.3,249.9,123"/>
	<path class="st0" d="M161.5,174.1L145.9,147c-1.2-2.1-1.2-4.7-0.3-7c2.3-5.9-1.8-12.9-8.6-13.1c-4.5-0.2-8.8,3-9.8,7.4
		c-1.3,5.8,2.6,11,7.8,11.8c2.5,0.4,4.8,1.7,6.1,4l15.6,27.1c1.2,2.1,1.2,4.7,0.3,7c-2.3,5.9,1.8,12.9,8.6,13.1
		c4.5,0.2,8.8-3,9.8-7.4c1.3-5.8-2.6-11-7.8-11.8C165.1,177.6,162.8,176.3,161.5,174.1"/>
</g>
<g>
	<path class="st0" d="M555.7,230.1c5.3,0,9.9,1.9,13.7,5.8c3.8,3.9,5.7,8.5,5.7,13.9c0,5.5-1.9,10.2-5.8,14c-3.8,3.8-8.5,5.8-14,5.8
		c-5.4,0-10.1-1.9-14-5.8c-3.9-3.9-5.8-8.5-5.8-14c0-5.5,1.9-10.2,5.8-14C545.3,232,550,230.1,555.7,230.1 M555.3,241.2
		c-2.3,0-4.2,0.8-5.9,2.5c-1.6,1.7-2.4,3.7-2.4,6.1c0,2.4,0.8,4.4,2.4,6.1c1.6,1.7,3.6,2.5,5.9,2.5c2.3,0,4.3-0.8,5.9-2.5
		c1.6-1.7,2.4-3.7,2.4-6.1c0-2.4-0.8-4.4-2.4-6.1C559.6,242,557.6,241.2,555.3,241.2"/>
	<path class="st0" d="M590.6,241.2v27.5h-11.1v-37.6h19.8c9.7,0,14.7,5.2,14.7,14.4c0,3.8-1.7,7.5-4.9,10.8l5.2,12.4h-12.8
		l-5.9-16.8c6.4,0,7-3.5,7-5.7c0-3.4-1.7-4.9-5.7-4.9H590.6z"/>
	<rect x="734.8" y="231.6" class="st0" width="11.2" height="37.6"/>
	<path class="st0" d="M804.8,269.2h-11.2v-37.6h11.2V269.2z M829.3,231.6l-12,17l12,20.5h-13.5l-10.6-20.7l11.7-16.8H829.3z"/>
	<rect x="834.3" y="231.6" class="st0" width="11.2" height="37.6"/>
	<path class="st0" d="M723.6,258.3c-1.7,0-2.8-0.3-3.3-0.9c-0.6-0.6-0.8-1.7-0.8-3.5v-22.3h-11.2v24.1c0,4.2,1.1,7.5,3.4,9.9
		c2.3,2.4,5.5,3.6,9.5,3.6h7.5v-10.9H723.6z"/>
	<path class="st0" d="M635,257.8c-1.7,0-2.8-0.3-3.3-0.9c-0.6-0.6-0.8-1.7-0.8-3.5v-22.3h-11.2v24.1c0,4.2,1.1,7.5,3.4,9.9
		c2.3,2.4,5.5,3.6,9.5,3.6h7.5v-10.9H635z"/>
	<path class="st0" d="M786.2,246.3c-0.2-8.7-7.3-15.6-16.1-15.6c-8.7,0-15.8,6.9-16.1,15.6c0,0.2,0,0.3,0,0.5v22.4h11.2v-21.9
		c0-2.7,2.2-4.9,4.9-4.9c2.7,0,4.9,2.2,4.9,4.9v21.9h11.2v-22.4C786.2,246.6,786.2,246.5,786.2,246.3"/>
	<path class="st0" d="M885.9,246.3c-0.2-8.7-7.3-15.6-16-15.6c-8.7,0-15.8,6.9-16,15.6c0,0.2,0,0.3,0,0.5v22.4h11.2v-21.9
		c0-2.7,2.2-4.9,4.9-4.9c2.7,0,4.9,2.2,4.9,4.9v21.9h11.2v-22.4C885.9,246.6,885.9,246.5,885.9,246.3"/>
	<path class="st0" d="M519,231.6v21.9c0,2.7-2.2,4.9-4.9,4.9c-2.6,0-4.7-2-4.9-4.6v-22.2h0h-11.1h0v22.2c-0.2,2.5-2.3,4.6-4.9,4.6
		c-2.7,0-4.9-2.2-4.9-4.9v-21.9h-11.2v22.4c0,0.2,0,0.3,0,0.5c0.2,8.7,7.3,15.6,16.1,15.6c4,0,8.1-2.4,10.5-4.8
		c2.5,2.5,6.5,4.8,10.5,4.8c8.7,0,15.8-6.9,16.1-15.6l0-22.9H519z"/>
	<path class="st0" d="M668.4,235.4c-3.6-2.9-8.6-4.3-15-4.3h-10.8v19.3h10.5l0-8.6c7.6-0.5,10.1,2.6,10.1,7.7c0,4.9-2.5,7.8-7.8,8.1
		h-8v11.2h7.7c5.8,0,10.5-1.8,14.2-5.4c3.7-3.6,5.3-8.2,5.3-13.9C674.7,243.6,672.7,238.9,668.4,235.4"/>
	<path class="st0" d="M897.7,264.2c3.6,2.9,8.6,4.4,15,4.4h10.8v-19.3h-10.5l0,8.5c-7.6,0.5-10.1-2.6-10.1-7.7
		c0-4.9,2.5-7.8,7.8-8.1h8v-11.2h-7.7c-5.8,0-10.5,1.8-14.2,5.4c-3.7,3.6-5.3,8.2-5.3,13.9C891.4,256,893.4,260.7,897.7,264.2"/>
	<path class="st0" d="M829.4,119.1c6.9,0,12.4-5.5,12.4-12.3V55.6H790v63.5H829.4z M821.9,103.4h-13V71.3h13V103.4z"/>
	<path class="st0" d="M589.2,176.6v-26.5h7.9c4.1,0,7.4-3.3,7.4-7.4V131h-15.3V48.5h-21.7v23.7h-6.3l1-15.1h-16.3l-3.3,56.9h7.5
		c4.9,0,8.9-4,8.9-8.9l1.1-15.7h7.5V131h-23.2v19.2h23.2v38.6h9.6C583.8,188.8,589.2,183.3,589.2,176.6"/>
	<path class="st0" d="M717.2,185.6h105.2c7.7,0,13.8-9.8,13.8-14.7v-45.4H717.2V185.6z M738.2,140.6h76.7v7.1h-76.7V140.6z
		 M738.2,161h76.7v7.9h-76.7V161z"/>
	<path class="st0" d="M994.8,65.5l4.8-15.6h-24l-6.9,25.7h15.9C989.4,75.5,993.6,71.4,994.8,65.5"/>
	<polygon class="st0" points="956.8,49.9 932.8,49.9 939.5,75.5 963.6,75.5 	"/>
	<path class="st0" d="M616.8,48.5h-17.6l-5.7,65.6h3.4c7.4,0,12.6-3.4,14.3-11.4l2.2-22.3h5.4l-9.8,108.7h7
		c6.5,0,12.1-4.9,12.9-11.3l8.5-97.3h6l-9.8,108.7h8.6c5.1,0,9.5-3.8,10.1-8.9l8.8-99.7h3.5v108.5h7.8c7.4,0,13.5-6.4,13.5-14.1
		V80.4V64.1v-1.8h-70.4L616.8,48.5z"/>
	<path class="st0" d="M395.1,75h25.6l-19.6,114.1h15.4c7.5,0,13.8-5.4,15-12.8l9.8-56.5h44.1l-5.7,69.3h15c7.8,0,14-6.4,14-14
		l5.1-72h0h0h-69.6l4.9-28.1h63.8c5.6,0,10.1-4.5,10.1-10.1v-6.6H395.1V75z"/>
	<path class="st0" d="M994.7,134.5c5.3,0,9.7-4.3,9.7-9.7v-7.8h-29.5c0.9-6.2,1.4-12.6,1.5-19.1h16.6c5.3,0,9.7-4.3,9.7-9.7v-7.8
		h-71.6v17.4h23.6c0.2,6.1-0.4,12.6-1.5,19.1h-23.8v17.4h19.7c-8,27.5-21.7,51.9-21.7,51.9h24.2c0,0,7.8-13.2,14.7-33.3l16.8,33.3
		h25.1L980,134.5H994.7z"/>
	<path class="st0" d="M767.2,96.3H785V80.5h-26.4c1.1-2.5,2.3-5.1,3-7.9h12.1c3.8,0,7-3.1,7-6.9V57h-45.1v-6.9h-23.6v22.6h26.2
		c-0.8,2.1-2.1,4.8-3.6,7.9h-24v15.8h15.3c-5.3,9-11.1,18-15.2,23.7h23.8c2.8-3.6,9.5-14.5,12-19.5c3.3,5.6,9.4,14.8,13.4,19.5h29.1
		C779.6,109.9,773.4,103.2,767.2,96.3"/>
	<path class="st0" d="M921.9,54.7L921.9,54.7h-52.4v15.9h5.5v87.3l-7.2,1.2V175l36.6-5.9v19.7h2.8c8,0,14.5-6.3,14.7-14.2V54.7z
		 M904.4,153.2l-11.8,1.9v-21.3h11.8V153.2z M904.4,117.9h-11.8v-16.5h11.8V117.9z M904.4,85.4h-11.8V70.6h11.8V85.4z"/>
</g>
</svg>
